<svg width="16" height="16" viewBox="0 0 16 16" fill="none" xmlns="http://www.w3.org/2000/svg">
<g clip-path="url(#clip0_3254_613)">
<rect width="16" height="16" fill="#1A253E"/>
<path d="M11.2514 3.73166H9.43359L10.3223 2.16115L11.2514 3.73166Z" fill="white"/>
<path d="M8.86857 3.73166H7.05078L7.97987 2.16115L8.86857 3.73166Z" fill="white"/>
<path d="M6.5242 3.73166H4.66602L5.59511 2.16115L6.5242 3.73166Z" fill="white"/>
<path d="M10.0789 2L9.14979 3.57051L8.70544 2.80539L8.2207 2H10.0789Z" fill="white"/>
<path d="M7.69669 2L7.25235 2.80539L6.7676 3.57051L5.87891 2H7.69669Z" fill="white"/>
<path d="M11.2102 4.05379L8.30176 7.67804L9.27124 4.05379H11.2102Z" fill="white"/>
<path d="M8.94811 4.05379L7.97863 7.75858L6.96875 4.05379H8.94811Z" fill="white"/>
<path d="M7.61514 7.67804L4.74707 4.05379H6.64565L7.61514 7.67804Z" fill="white"/>
<path d="M8.18109 11.6244C6.68646 12.9935 5.95935 15.6916 7.05002 18.1077C8.01951 20.242 10.322 21.5306 12.3418 21.3695C12.3418 21.3695 12.3418 21.3293 12.3014 21.3293C12.261 21.3293 12.2206 21.3293 12.1802 21.289C10.4836 21.0071 9.06978 20.2017 8.01951 18.8728C6.4037 16.8191 6.4037 13.7989 8.01951 11.7854C8.1003 11.7452 8.14069 11.6646 8.18109 11.6244Z" fill="white"/>
<path d="M8.42392 20.9669C10.7668 22.6582 13.7157 22.3763 15.6951 21.0072C13.3117 22.175 10.9284 22.2958 8.70669 20.7253C6.48495 19.1548 5.75783 16.8997 6.16178 14.2419C5.51546 16.6581 6.08099 19.2756 8.42392 20.9669Z" fill="white"/>
<path d="M1.83935 20.4032C1.03144 20.3226 0.263935 20.081 -0.422785 19.6783C-1.71543 18.9132 -2.56373 17.7857 -2.96769 16.3762C-3.45243 14.6446 -3.12927 12.9936 -2.11939 11.5036C-2.07899 11.4231 -2.0386 11.3828 -1.9982 11.3023C-3.57362 13.1547 -3.85638 15.5306 -2.64452 17.7857C-1.59425 19.6783 0.546701 20.7656 2.20291 20.6448C2.20291 20.4837 2.00093 20.4434 1.83935 20.4032Z" fill="white"/>
<path d="M16.745 17.7454C17.7145 16.1749 17.9164 14.4836 17.2701 12.7923C16.543 10.8594 15.1696 9.61102 13.1902 9.04725C12.867 8.96671 12.5439 8.92644 12.2207 8.88617C12.2611 8.92644 12.3015 8.92644 12.3419 8.92644C12.3823 8.92644 12.4227 8.92644 12.4631 8.96671C14.5232 9.36941 15.8967 10.5775 16.745 12.4299C17.2701 13.5574 17.3509 14.7252 17.1489 15.9736C16.9469 17.1414 16.4218 18.1884 15.4927 18.9938C15.21 19.2354 14.8464 19.477 14.5232 19.7186C15.4523 19.2757 16.2198 18.6314 16.745 17.7454Z" fill="white"/>
<path d="M19.6935 14.3225C19.3703 12.2688 18.3605 10.6177 16.7446 9.3291C15.5328 8.36263 14.119 7.83913 12.5839 7.75859C11.6548 7.71832 10.7258 7.79886 9.87745 8.12102C9.79666 8.16129 9.71587 8.20156 9.63508 8.24182C9.79666 8.4029 9.95824 8.36263 10.1198 8.32236C10.645 8.24182 11.1701 8.12102 11.6952 8.12102C14.119 8.12102 16.0175 9.16802 17.391 11.1412C18.2393 12.3896 18.5624 13.7587 18.3605 15.2487C18.3201 15.5709 18.2797 15.8527 18.1989 16.1346C18.2393 16.0541 18.2797 15.9333 18.3201 15.8527C18.724 14.4836 18.724 13.1547 18.1585 11.8258C17.8757 11.101 17.4314 10.4566 16.9062 9.8526C16.8658 9.81233 16.8254 9.73179 16.785 9.65125C16.8658 9.65125 16.9062 9.69152 16.9062 9.73179C17.5526 10.3761 18.1181 11.101 18.5624 11.9063C19.2896 13.3158 19.6531 14.846 19.3703 16.4165C18.8856 19.2354 17.3102 21.1683 14.6441 22.175C12.8667 22.8193 11.0489 22.7791 9.35231 21.9737C7.93848 21.3294 6.80741 20.2824 5.99951 18.9535C4.74726 16.94 4.54528 14.846 5.31279 12.6312C5.71674 11.4231 6.44386 10.4164 7.37295 9.53044C7.45374 9.44991 7.53453 9.36937 7.61532 9.28883L7.57492 9.24856C7.49413 9.28883 7.41334 9.3291 7.33255 9.36937C6.16109 10.215 5.35318 11.3426 4.82805 12.6715C4.26251 13.8795 4.10093 15.0876 4.26251 16.2957C4.46449 18.0676 5.11081 19.6783 6.40346 20.9669C8.6252 23.1415 11.2509 23.8261 14.1997 22.9804C16.5427 22.2958 18.1989 20.8059 19.1684 18.5911C19.7743 17.2219 19.9359 15.7722 19.6935 14.3225Z" fill="white"/>
<path d="M-0.948699 9.93315C-2.44332 10.8191 -3.4532 12.1077 -3.77637 13.8393C-4.26111 16.2957 -3.4532 18.3092 -1.55463 19.92C-0.302376 20.967 2.00015 21.6113 2.84845 21.2086C2.68687 21.128 2.56569 21.0475 2.4445 21.0475C1.03067 21.0475 -0.26198 20.6045 -1.35265 19.7186C-2.6453 18.6716 -3.41281 17.3427 -3.61479 15.6917C-3.85716 13.6782 -3.13004 11.9869 -1.71621 10.5775C-1.47384 10.3358 -1.19107 10.1345 -0.948699 9.93315Z" fill="white"/>
<path d="M5.67699 21.2085C4.66711 21.7723 3.49564 22.0945 2.24339 22.0945C-1.63456 22.0945 -4.74499 18.9535 -4.74499 15.1279C-4.74499 11.262 -1.59416 8.16126 2.24339 8.16126C6.12134 8.16126 9.23177 11.3023 9.23177 15.1279C9.23177 16.2957 8.949 17.383 8.46426 18.3091C8.78742 18.6313 9.15098 18.9937 9.47414 19.3159C10.2013 18.0675 10.6052 16.6178 10.6052 15.0876C10.6052 12.8728 9.71651 10.7385 8.1411 9.168C6.56568 7.59749 4.46513 6.71157 2.203 6.71157C-0.018744 6.71157 -2.15969 7.59749 -3.73511 9.168C-5.31052 10.7385 -6.19922 12.8325 -6.19922 15.0876C-6.19922 17.3024 -5.31052 19.4367 -3.73511 21.0072C-2.15969 22.5777 -0.0591393 23.4636 2.203 23.4636C3.81881 23.4636 5.35383 23.0207 6.68687 22.175C6.4041 21.9334 6.12134 21.6918 5.83857 21.4502C5.83857 21.3696 5.75778 21.2891 5.67699 21.2085Z" fill="white"/>
</g>
<defs>
<clipPath id="clip0_3254_613">
<rect width="16" height="16" fill="white"/>
</clipPath>
</defs>
</svg>
