<svg width="72" height="71" viewBox="0 0 72 71" fill="none" xmlns="http://www.w3.org/2000/svg">
<path d="M53.8125 25L47.6875 40.163H63L53.8125 25Z" fill="#AF935F" fill-opacity="0.2"/>
<path d="M38.5 25L47.6875 40.163L53.8125 25H38.5Z" fill="#AF935F" fill-opacity="0.2"/>
<path d="M38.5 25L29.3125 40.163H47.6875L38.5 25Z" fill="#AF935F" fill-opacity="0.2"/>
<path d="M29.3125 40.163L38.5 25H23.1875L29.3125 40.163Z" fill="#AF935F" fill-opacity="0.2"/>
<path d="M29.3125 40.163L23.1875 25L14 40.163H29.3125Z" fill="#AF935F" fill-opacity="0.2"/>
<path d="M14 40.163L38.5 70L29.3125 40.163H14Z" fill="#AF935F" fill-opacity="0.2"/>
<path d="M29.3125 40.163L38.5 70L47.6875 40.163H29.3125Z" fill="#AF935F" fill-opacity="0.2"/>
<path d="M38.5 70L63 40.163H47.6875L38.5 70Z" fill="#AF935F" fill-opacity="0.2"/>
<path d="M38.5 70L63 40.163M38.5 70L14 40.163M38.5 70L29.3125 40.163M38.5 70L47.6875 40.163M63 40.163L53.8125 25M63 40.163H47.6875M14 40.163L23.1875 25M14 40.163H29.3125M29.3125 40.163L38.5 25M29.3125 40.163L23.1875 25M29.3125 40.163H47.6875M47.6875 40.163L38.5 25M47.6875 40.163L53.8125 25M38.5 25H53.8125M38.5 25H23.1875M38 14.3438V0M30.739 17L21 5.57812M45.261 17L55 5.57812M14.4999 55L14.4999 58.5M14.4999 58.5L14.5 62M14.4999 58.5H11M14.4999 58.5H18M70.5706 62.4128C69.8195 62.1922 68.7243 61.7099 67.7715 60.6648C66.4299 59.1933 66.1424 57.4701 66.0904 56.574C66.0718 56.2517 65.813 56 65.5 56C65.187 56 64.9284 56.2515 64.9096 56.574C64.8576 57.4701 64.5701 59.1933 63.2286 60.6648C62.2758 61.7099 61.1805 62.1922 60.4295 62.4128C60.1754 62.4874 60 62.7273 60 63.0001C60 63.2728 60.1754 63.5126 60.4295 63.5874C61.1805 63.8079 62.2758 64.2903 63.2286 65.3353C64.5701 66.8067 64.8577 68.5299 64.9096 69.426C64.9282 69.7483 65.187 70 65.5 70C65.813 70 66.0716 69.7485 66.0904 69.426C66.1424 68.5299 66.4299 66.8067 67.7714 65.3353C68.7242 64.2903 69.8195 63.8079 70.5705 63.5874C70.8246 63.5128 71 63.2728 71 63.0001C71 62.7273 70.8249 62.4874 70.5706 62.4128ZM5 31C7.20556 31 9 29.2056 9 27C9 24.7944 7.20556 23 5 23C2.79443 23 1 24.7944 1 27C1 29.2056 2.79443 31 5 31Z" stroke="#05060D"/>
</svg>
