<svg width="71" height="72" viewBox="0 0 71 72" fill="none" xmlns="http://www.w3.org/2000/svg">
<path d="M56 43.5C56 58.6878 43.6878 71 28.5 71C13.3122 71 1 58.6878 1 43.5C1 33.923 5.8956 25.4893 13.3208 20.5652L15.2077 22.9158C8.46328 27.28 4 34.8688 4 43.5C4 57.031 14.969 68 28.5 68C42.031 68 53 57.031 53 43.5C53 34.8688 48.5367 27.28 41.7923 22.9158L43.6792 20.5652C51.1044 25.4893 56 33.923 56 43.5Z" fill="#AF935F" fill-opacity="0.2"/>
<path d="M45 11.4456L34.6875 11.4457L28.5 31.9999L39.5053 18.2905L45 11.4456Z" fill="#AF935F" fill-opacity="0.2"/>
<path d="M34.6875 11.4457H22.3125L28.5 31.9999L34.6875 11.4457Z" fill="#AF935F" fill-opacity="0.2"/>
<path d="M22.3125 11.4457L12 11.4456L28.5 31.9999L22.3125 11.4457Z" fill="#AF935F" fill-opacity="0.2"/>
<path d="M22.3125 11.4457L18.1875 1L12 11.4456L22.3125 11.4457Z" fill="#AF935F" fill-opacity="0.2"/>
<path d="M22.3125 11.4457L28.5 1H18.1875L22.3125 11.4457Z" fill="#AF935F" fill-opacity="0.2"/>
<path d="M28.5 1L22.3125 11.4457H34.6875L28.5 1Z" fill="#AF935F" fill-opacity="0.2"/>
<path d="M38.8125 1L34.6875 11.4457L45 11.4456L38.8125 1Z" fill="#AF935F" fill-opacity="0.2"/>
<path d="M28.5 1L34.6875 11.4457L38.8125 1H28.5Z" fill="#AF935F" fill-opacity="0.2"/>
<path d="M38.8125 1L39.2427 0.745174L39.0975 0.5H38.8125V1ZM45 11.4456L45.3899 11.7586L45.6066 11.4886L45.4302 11.1907L45 11.4456ZM18.1875 1V0.5H17.9025L17.7573 0.745174L18.1875 1ZM12 11.4456L11.5698 11.1907L11.3934 11.4886L11.6101 11.7586L12 11.4456ZM39.5053 18.2905L39.8952 18.6035V18.6035L39.5053 18.2905ZM28.5 31.9999L28.1101 32.3129L28.5 32.7986L28.8899 32.3129L28.5 31.9999ZM15.2077 22.9158L15.5976 22.6028L15.2077 22.9158ZM43.6792 20.5652L43.2893 20.2522L43.6792 20.5652ZM5.64645 43.6464C5.45118 43.8417 5.45118 44.1583 5.64645 44.3536L8.82843 47.5355C9.02369 47.7308 9.34027 47.7308 9.53553 47.5355C9.7308 47.3403 9.7308 47.0237 9.53553 46.8284L6.70711 44L9.53553 41.1716C9.7308 40.9763 9.7308 40.6597 9.53553 40.4645C9.34027 40.2692 9.02369 40.2692 8.82843 40.4645L5.64645 43.6464ZM51.3536 44.3536C51.5488 44.1583 51.5488 43.8417 51.3536 43.6464L48.1716 40.4645C47.9763 40.2692 47.6597 40.2692 47.4645 40.4645C47.2692 40.6597 47.2692 40.9763 47.4645 41.1716L50.2929 44L47.4645 46.8284C47.2692 47.0237 47.2692 47.3403 47.4645 47.5355C47.6597 47.7308 47.9763 47.7308 48.1716 47.5355L51.3536 44.3536ZM28.0698 0.745176L21.8823 11.1908L22.7427 11.7005L28.9302 1.25482L28.0698 0.745176ZM28.0698 1.25482L34.2573 11.7005L35.1177 11.1908L28.9302 0.745176L28.0698 1.25482ZM38.3475 0.816351L34.2225 11.262L35.1525 11.6293L39.2775 1.18365L38.3475 0.816351ZM38.3823 1.25483L44.5698 11.7004L45.4302 11.1907L39.2427 0.745174L38.3823 1.25483ZM17.7224 1.18365L21.8474 11.6293L22.7776 11.262L18.6526 0.816351L17.7224 1.18365ZM17.7573 0.745174L11.5698 11.1907L12.4302 11.7004L18.6177 1.25483L17.7573 0.745174ZM55.5 43.5C55.5 58.4117 43.4117 70.5 28.5 70.5V71.5C43.964 71.5 56.5 58.964 56.5 43.5H55.5ZM28.5 70.5C13.5883 70.5 1.5 58.4117 1.5 43.5H0.5C0.5 58.964 13.036 71.5 28.5 71.5V70.5ZM52.5 43.5C52.5 56.7548 41.7548 67.5 28.5 67.5V68.5C42.3071 68.5 53.5 57.3071 53.5 43.5H52.5ZM28.5 67.5C15.2452 67.5 4.5 56.7548 4.5 43.5H3.5C3.5 57.3071 14.6929 68.5 28.5 68.5V67.5ZM12 11.9456L22.3125 11.9457L22.3125 10.9457L12 10.9456L12 11.9456ZM22.3125 11.9457H34.6875V10.9457H22.3125V11.9457ZM34.6875 11.9457L45 11.9456L45 10.9456L34.6875 10.9457L34.6875 11.9457ZM28.5 1.5H38.8125V0.5H28.5V1.5ZM18.1875 1.5H28.5V0.5H18.1875V1.5ZM17.8846 17.9775L12.3899 11.1326L11.6101 11.7586L17.1048 18.6035L17.8846 17.9775ZM39.8952 18.6035L45.3899 11.7586L44.6101 11.1326L39.1154 17.9775L39.8952 18.6035ZM21.8337 11.5898L28.0212 32.144L28.9788 31.8558L22.7913 11.3015L21.8337 11.5898ZM34.2087 11.3015L28.0212 31.8558L28.9788 32.144L35.1663 11.5898L34.2087 11.3015ZM1.5 43.5C1.5 34.0976 6.30568 25.8174 13.5971 20.9819L13.0444 20.1485C5.48552 25.1613 0.5 33.7483 0.5 43.5H1.5ZM13.7107 20.2522L6.38991 11.1326L5.61009 11.7586L12.9309 20.8782L13.7107 20.2522ZM22.8899 31.6869L15.5976 22.6028L14.8178 23.2288L22.1101 32.3129L22.8899 31.6869ZM15.5976 22.6028L13.7107 20.2522L12.9309 20.8782L14.8178 23.2288L15.5976 22.6028ZM4.5 43.5C4.5 35.0454 8.87127 27.6116 15.4794 23.3356L14.9361 22.496C8.05529 26.9485 3.5 34.6921 3.5 43.5H4.5ZM41.5206 23.3356C48.1287 27.6116 52.5 35.0454 52.5 43.5H53.5C53.5 34.6921 48.9447 26.9485 42.0639 22.496L41.5206 23.3356ZM34.8899 32.3129L42.1822 23.2288L41.4024 22.6028L34.1101 31.6869L34.8899 32.3129ZM42.1822 23.2288L44.0691 20.8782L43.2893 20.2522L41.4024 22.6028L42.1822 23.2288ZM44.0691 20.8782L51.3899 11.7586L50.6101 11.1326L43.2893 20.2522L44.0691 20.8782ZM43.4029 20.9819C50.6943 25.8174 55.5 34.0976 55.5 43.5H56.5C56.5 33.7483 51.5145 25.1613 43.9556 20.1485L43.4029 20.9819ZM56 44.5H71V43.5H56V44.5ZM6 44.5H51V43.5H6V44.5ZM65.5 37.5C65.5 38.6046 64.6046 39.5 63.5 39.5V40.5C65.1569 40.5 66.5 39.1569 66.5 37.5H65.5ZM63.5 39.5C62.3954 39.5 61.5 38.6046 61.5 37.5H60.5C60.5 39.1569 61.8431 40.5 63.5 40.5V39.5ZM61.5 37.5C61.5 36.3954 62.3954 35.5 63.5 35.5V34.5C61.8431 34.5 60.5 35.8431 60.5 37.5H61.5ZM63.5 35.5C64.6046 35.5 65.5 36.3954 65.5 37.5H66.5C66.5 35.8431 65.1569 34.5 63.5 34.5V35.5ZM65.5 31V41H66.5V31H65.5ZM28.8899 31.6869L12.3899 11.1326L11.6101 11.7586L28.1101 32.3129L28.8899 31.6869ZM28.8899 32.3129L45.3899 11.7586L44.6101 11.1326L28.1101 31.6869L28.8899 32.3129ZM28.8899 32.3129L39.8952 18.6035L39.1154 17.9775L28.1101 31.6869L28.8899 32.3129Z" fill="#05060D"/>
</svg>
