<svg width="300" height="300" viewBox="0 0 300 300" fill="none" xmlns="http://www.w3.org/2000/svg">
<circle cx="150" cy="150" r="150" fill="white"/>
<path d="M126.988 268.83C118.704 267.178 110.604 264.792 102.688 261.489C88.1443 255.433 75.2577 246.624 64.028 235.612C52.7982 224.418 44.1458 211.571 38.0707 197.073C31.8115 182.208 28.6819 166.425 28.6819 150.092C28.6819 133.758 31.8115 117.976 38.2548 102.927C44.3299 88.4288 53.1664 75.5824 64.2121 64.3876C75.4418 53.1929 88.3284 44.5674 102.872 38.5112C110.788 35.2079 118.888 32.8221 127.172 31.1704V27.5C118.336 29.1517 109.683 31.721 101.399 35.2079C86.4875 41.4476 73.2327 50.4401 61.6348 61.8184C50.2209 73.3802 41.2003 86.5936 34.757 101.459C28.3137 116.875 25 133.208 25 150.092C25 166.976 28.3137 183.309 34.757 198.541C41.0162 213.406 50.0368 226.62 61.4507 238.182C72.8645 249.56 86.3034 258.552 101.215 264.976C109.499 268.463 118.152 271.032 126.988 272.684V268.83Z" fill="#AF935F"/>
<path d="M265.243 101.459C258.984 86.5936 249.963 73.3802 238.549 61.8184C227.135 50.4401 213.697 41.4476 198.785 35.2079C190.501 31.721 181.848 29.1517 173.012 27.5V31.1704C181.296 32.8221 189.396 35.2079 197.312 38.5112C211.856 44.5674 224.742 53.3764 235.972 64.3876C247.202 75.5824 255.854 88.4288 261.929 102.927C268.188 117.792 271.502 133.758 271.502 150.092C271.502 166.425 268.373 182.208 261.929 197.257C255.854 211.755 247.018 224.601 235.972 235.796C224.742 246.991 211.856 255.616 197.312 261.672C189.396 264.976 181.296 267.361 173.012 269.013V272.684C181.848 271.032 190.501 268.463 198.785 264.976C213.697 258.736 226.951 249.743 238.549 238.182C249.963 226.803 258.984 213.406 265.243 198.541C271.686 183.125 275 166.792 275 150.092C275 133.208 271.686 116.875 265.243 101.459Z" fill="#AF935F"/>
<path d="M110.604 213.406V215.425L73.9688 214.691L110.604 213.406Z" fill="#AF935F"/>
<path d="M217.747 214.324L181.296 215.609V213.59L217.747 214.324Z" fill="#AF935F"/>
<path d="M225.847 189.365C225.479 189.182 225.111 188.998 224.743 188.815C224.374 188.631 223.822 188.631 223.27 188.631C222.718 188.631 222.349 188.815 221.981 188.998C221.613 189.182 221.245 189.549 221.061 189.732C220.877 190.099 220.692 190.466 220.692 191.017C220.692 191.384 220.692 191.751 220.877 191.934C221.061 192.118 221.245 192.485 221.429 192.668C221.613 192.852 221.981 193.036 222.165 193.219C222.533 193.403 222.718 193.403 222.902 193.586C223.086 193.77 223.454 193.77 223.638 193.953C223.822 194.137 224.006 194.32 224.19 194.32C224.374 194.504 224.374 194.687 224.374 194.871C224.374 195.238 224.374 195.421 224.19 195.605C224.006 195.788 223.822 195.972 223.638 195.972C223.454 195.972 223.086 196.155 222.902 196.155C222.718 196.155 222.349 196.155 222.165 195.972C221.981 195.972 221.613 195.788 221.429 195.605C221.245 195.421 221.061 195.421 220.877 195.238L220.324 196.339C220.508 196.522 220.877 196.706 221.245 196.889C221.613 197.073 221.797 197.073 222.165 197.256C222.533 197.44 222.902 197.44 223.27 197.44C223.822 197.44 224.374 197.257 224.743 197.073C225.111 196.889 225.479 196.522 225.663 196.155C225.847 195.788 226.031 195.421 226.031 194.871C226.031 194.504 226.031 194.137 225.847 193.77C225.663 193.403 225.479 193.219 225.295 193.036C225.111 192.852 224.927 192.668 224.558 192.485C224.374 192.301 224.006 192.301 223.822 192.118C223.454 191.934 223.27 191.934 222.902 191.751C222.718 191.567 222.349 191.384 222.349 191.384C222.165 191.2 222.165 191.017 222.165 190.833C222.165 190.466 222.349 190.283 222.533 190.099C222.718 189.916 223.086 189.732 223.454 189.732C223.822 189.732 224.006 189.732 224.374 189.916C224.743 190.099 225.111 190.099 225.295 190.283L225.847 189.365ZM210.751 188.631H209.463V193.953C209.463 194.504 209.647 195.054 209.831 195.605C210.199 196.155 210.567 196.522 210.935 196.706C211.488 196.889 212.04 197.073 212.592 197.073C213.145 197.073 213.697 196.889 214.249 196.706C214.801 196.522 215.17 196.155 215.354 195.605C215.722 195.054 215.722 194.687 215.722 193.953V188.631H214.433V193.953C214.433 194.32 214.433 194.504 214.249 194.871C214.065 195.238 213.881 195.421 213.513 195.605C213.145 195.788 212.961 195.788 212.592 195.788C212.224 195.788 211.856 195.788 211.672 195.605C211.304 195.421 211.12 195.238 210.935 194.871C210.751 194.687 210.751 194.32 210.751 193.953V188.631ZM199.153 197.073L199.89 195.054H203.019L203.756 197.073H205.413L201.731 188.448L198.049 197.073H199.153ZM201.547 191.2L202.651 193.77H200.442L201.547 191.2ZM192.158 188.631V192.118H188.108V188.631H186.819V197.073H188.108V193.586H192.158V197.073H193.447V188.631H192.158ZM181.849 192.852H178.903V194.137H180.56V195.605C180.376 195.788 180.192 195.788 180.008 195.788C179.824 195.788 179.455 195.788 179.271 195.788C178.903 195.788 178.351 195.788 177.983 195.605C177.614 195.421 177.246 195.238 177.062 195.054C176.878 194.871 176.51 194.504 176.51 194.137C176.326 193.77 176.326 193.403 176.326 193.036C176.326 192.485 176.326 192.118 176.51 191.751C176.694 191.384 176.878 191.017 177.062 190.833C177.246 190.65 177.614 190.283 177.983 190.283C178.351 190.099 178.719 190.099 179.271 190.099C179.455 190.099 179.639 190.099 180.008 190.099C180.192 190.099 180.56 190.283 180.744 190.283C180.928 190.283 181.112 190.466 181.296 190.466L181.664 189.182C181.296 188.998 180.928 188.815 180.56 188.815C180.192 188.631 179.639 188.631 179.087 188.631C178.535 188.631 177.983 188.815 177.43 188.998C176.878 189.182 176.51 189.549 176.142 189.916C175.773 190.283 175.405 190.833 175.221 191.384C175.037 191.934 174.853 192.668 174.853 193.219C174.853 193.77 175.037 194.32 175.221 194.871C175.405 195.421 175.773 195.788 176.142 196.155C176.51 196.522 177.062 196.889 177.614 197.073C178.167 197.257 178.719 197.44 179.455 197.44C179.639 197.44 180.008 197.44 180.192 197.44C180.56 197.44 180.744 197.256 180.928 197.256C181.112 197.256 181.48 197.073 181.664 196.889C181.849 196.706 182.033 196.706 182.217 196.522V192.852H181.849ZM169.882 197.256V188.631H168.594V194.32L162.519 188.448V197.073H163.807V191.567L169.882 197.256ZM155.891 197.073H157.18V188.631H155.891V197.073ZM145.398 188.631V197.073H146.687V194.137H147.975H148.159L150 197.073H151.657L149.632 193.77C150 193.586 150.184 193.403 150.368 193.219C150.553 193.036 150.737 192.668 150.921 192.301C151.105 191.934 151.105 191.567 151.105 191.384C151.105 191.017 151.105 190.65 150.921 190.283C150.737 189.916 150.553 189.732 150.368 189.365C150 189.182 149.816 188.998 149.448 188.815C149.08 188.631 148.712 188.631 148.159 188.631H145.398ZM146.687 192.852V189.916H147.975C148.343 189.916 148.528 189.916 148.712 190.099C148.896 190.283 149.08 190.283 149.264 190.466C149.448 190.65 149.448 190.833 149.448 191.017C149.448 191.2 149.448 191.384 149.448 191.567C149.448 191.751 149.448 191.934 149.448 192.118C149.448 192.301 149.264 192.485 149.264 192.668C149.08 192.852 148.896 192.852 148.712 193.036C148.528 193.219 148.343 193.219 147.975 193.219H146.687V192.852ZM135.089 188.631H133.8V193.953C133.8 194.504 133.984 195.054 134.168 195.605C134.536 196.155 134.905 196.522 135.273 196.706C135.825 196.889 136.377 197.073 136.93 197.073C137.482 197.073 138.034 196.889 138.586 196.706C139.139 196.522 139.507 196.155 139.691 195.605C140.059 195.054 140.059 194.687 140.059 193.953V188.631H138.771V193.953C138.771 194.32 138.771 194.504 138.586 194.871C138.402 195.238 138.218 195.421 137.85 195.605C137.482 195.788 137.298 195.788 136.93 195.788C136.561 195.788 136.193 195.788 136.009 195.605C135.641 195.421 135.457 195.238 135.273 194.871C135.089 194.687 135.089 194.32 135.089 193.953V188.631ZM123.675 197.073L124.411 195.054H127.541L128.277 197.073H129.75L126.068 188.448L122.386 197.073H123.675ZM126.068 191.2L127.173 193.77H124.963L126.068 191.2ZM112.629 188.631V197.073H113.918V194.137H115.206L117.047 197.073H118.704L116.679 193.77C117.047 193.586 117.232 193.403 117.416 193.219C117.6 193.036 117.784 192.668 117.968 192.301C118.152 191.934 118.152 191.567 118.152 191.384C118.152 191.017 118.152 190.65 117.968 190.283C117.784 189.916 117.6 189.732 117.416 189.365C117.047 189.182 116.863 188.998 116.495 188.815C116.127 188.631 115.759 188.631 115.206 188.631H112.629ZM113.918 192.852V189.916H115.206C115.575 189.916 115.759 189.916 115.943 190.099C116.127 190.283 116.311 190.283 116.495 190.466C116.679 190.65 116.679 190.833 116.679 191.017C116.679 191.2 116.679 191.384 116.679 191.567C116.679 191.751 116.679 191.934 116.679 192.118C116.679 192.301 116.495 192.485 116.495 192.668C116.311 192.852 116.127 192.852 115.943 193.036C115.759 193.219 115.575 193.219 115.206 193.219H113.918V192.852ZM102.32 189.916H104.345V197.073H105.634V189.916H107.843V188.631H102.32V189.916ZM91.8265 189.365C91.4583 189.182 91.0901 188.998 90.7219 188.815C90.3538 188.631 89.8015 188.631 89.2492 188.631C88.6969 188.631 88.3287 188.815 87.9605 188.998C87.5923 189.182 87.2241 189.549 87.0401 189.732C86.856 190.099 86.6719 190.466 86.6719 191.017C86.6719 191.384 86.6719 191.751 86.856 191.934C87.04 192.118 87.2241 192.485 87.4082 192.668C87.5923 192.852 87.9605 193.036 88.1446 193.219C88.5128 193.403 88.6969 193.403 88.881 193.586C89.0651 193.77 89.4333 193.77 89.6174 193.953C89.8015 194.137 89.9856 194.32 90.1697 194.32C90.3538 194.504 90.3537 194.687 90.3537 194.871C90.3537 195.238 90.3538 195.421 90.1697 195.605C89.9856 195.788 89.8015 195.972 89.6174 195.972C89.4333 195.972 89.0651 196.155 88.881 196.155C88.6969 196.155 88.3287 196.155 88.1446 195.972C87.9605 195.972 87.5923 195.788 87.4082 195.605C87.2241 195.421 87.04 195.421 86.856 195.238L86.3037 196.339C86.4878 196.522 86.856 196.706 87.2241 196.889C87.5923 197.073 87.7764 197.073 88.1446 197.256C88.5128 197.44 88.881 197.44 89.2492 197.44C89.8015 197.44 90.3538 197.257 90.7219 197.073C91.0901 196.889 91.4583 196.522 91.6424 196.155C91.8265 195.788 92.0106 195.421 92.0106 194.871C92.0106 194.504 92.0106 194.137 91.8265 193.77C91.6424 193.403 91.4583 193.219 91.2742 193.036C91.0901 192.852 90.906 192.668 90.5378 192.485C90.3537 192.301 89.9856 192.301 89.8015 192.118C89.4333 191.934 89.2492 191.934 88.881 191.751C88.6969 191.567 88.3287 191.384 88.3287 191.384C88.1446 191.2 88.1446 191.017 88.1446 190.833C88.1446 190.466 88.3287 190.283 88.5128 190.099C88.6969 189.916 89.0651 189.732 89.4333 189.732C89.8015 189.732 89.9856 189.732 90.3537 189.916C90.7219 190.099 91.0901 190.099 91.2742 190.283L91.8265 189.365ZM76.3626 197.073L77.099 195.054H80.2286L80.9649 197.073H82.4377L78.7558 188.448L75.0739 197.073H76.3626ZM78.7558 191.2L79.8604 193.77H77.6512L78.7558 191.2ZM66.0533 189.916H67.5261C67.8943 189.916 68.2624 189.916 68.4465 190.099C68.6306 190.283 68.9988 190.466 69.367 190.65C69.7352 190.833 69.9193 191.2 70.1034 191.567C70.2875 191.934 70.2875 192.485 70.2875 192.852C70.2875 193.403 70.2875 193.77 70.1034 194.137C69.9193 194.504 69.7352 194.871 69.5511 195.054C69.367 195.238 68.9988 195.421 68.6306 195.605C68.2624 195.788 67.8942 195.788 67.342 195.788H66.2374V189.916H66.0533ZM67.5261 197.073C68.0783 197.073 68.6306 197.073 69.1829 196.706C69.7352 196.522 70.1034 196.155 70.4716 195.972C70.8398 195.605 71.2079 195.238 71.392 194.687C71.5761 194.137 71.7602 193.586 71.7602 193.036C71.7602 192.485 71.7602 191.934 71.5761 191.567C71.392 191.017 71.2079 190.65 70.8398 190.099C70.4716 189.732 69.9193 189.365 69.367 189.182C68.8147 188.998 68.0783 188.815 67.1579 188.815H64.7646V197.256H67.5261V197.073Z" fill="#05060D"/>
<path d="M170.987 210.103C170.619 209.92 170.25 209.736 169.882 209.552C169.514 209.369 168.962 209.369 168.409 209.369C167.857 209.369 167.489 209.552 167.121 209.736C166.753 209.92 166.384 210.287 166.2 210.47C166.016 210.837 165.832 211.204 165.832 211.755C165.832 212.122 165.832 212.489 166.016 212.672C166.2 212.856 166.384 213.223 166.568 213.406C166.753 213.59 167.121 213.773 167.305 213.957C167.673 214.14 167.857 214.14 168.041 214.324C168.225 214.508 168.594 214.508 168.778 214.691C168.962 214.875 169.146 215.058 169.33 215.058C169.514 215.242 169.514 215.425 169.514 215.609C169.514 215.976 169.514 216.159 169.33 216.343C169.146 216.526 168.962 216.71 168.778 216.71C168.594 216.71 168.225 216.893 168.041 216.893C167.857 216.893 167.489 216.893 167.305 216.71C167.121 216.71 166.753 216.526 166.568 216.343C166.384 216.159 166.2 216.159 165.832 215.976L165.28 217.077C165.464 217.26 165.832 217.444 166.2 217.627C166.568 217.811 166.753 217.811 167.121 217.994C167.489 217.994 167.857 218.178 168.225 218.178C168.778 218.178 169.33 217.994 169.698 217.811C170.066 217.627 170.434 217.26 170.619 216.893C170.803 216.526 170.987 216.159 170.987 215.609C170.987 215.242 170.987 214.875 170.803 214.508C170.619 214.14 170.434 213.957 170.25 213.773C170.066 213.59 169.882 213.406 169.514 213.223C169.33 213.039 168.962 213.039 168.778 212.856C168.409 212.672 168.225 212.672 167.857 212.489C167.673 212.305 167.305 212.122 167.121 212.122C166.937 211.938 166.937 211.755 166.937 211.571C166.937 211.204 167.121 211.021 167.305 210.837C167.489 210.654 167.857 210.47 168.225 210.47C168.594 210.47 168.962 210.47 169.146 210.654C169.514 210.837 169.882 210.837 170.066 211.021L170.987 210.103ZM161.046 210.103C160.677 209.92 160.309 209.736 159.941 209.552C159.573 209.369 159.021 209.369 158.468 209.369C157.916 209.369 157.548 209.552 157.18 209.736C156.811 209.92 156.443 210.287 156.259 210.47C156.075 210.837 155.891 211.204 155.891 211.755C155.891 212.122 155.891 212.489 156.075 212.672C156.259 212.856 156.443 213.223 156.627 213.406C156.811 213.59 157.18 213.773 157.364 213.957C157.732 214.14 157.916 214.14 158.1 214.324C158.284 214.508 158.652 214.508 158.837 214.691C159.021 214.875 159.205 215.058 159.389 215.058C159.573 215.242 159.573 215.425 159.573 215.609C159.573 215.976 159.573 216.159 159.389 216.343C159.205 216.526 159.021 216.71 158.837 216.71C158.652 216.71 158.284 216.893 158.1 216.893C157.916 216.893 157.548 216.893 157.364 216.71C157.18 216.71 156.811 216.526 156.627 216.343C156.443 216.159 156.259 216.159 155.891 215.976L155.339 217.077C155.523 217.26 155.891 217.444 156.259 217.627C156.627 217.811 156.811 217.811 157.18 217.994C157.548 217.994 157.916 218.178 158.284 218.178C158.837 218.178 159.389 217.994 159.757 217.811C160.125 217.627 160.493 217.26 160.677 216.893C160.862 216.526 161.046 216.159 161.046 215.609C161.046 215.242 161.046 214.875 160.862 214.508C160.677 214.14 160.493 213.957 160.309 213.773C160.125 213.59 159.941 213.406 159.573 213.223C159.389 213.039 159.021 213.039 158.837 212.856C158.468 212.672 158.284 212.672 157.916 212.489C157.732 212.305 157.364 212.122 157.18 212.122C156.996 211.938 156.996 211.755 156.996 211.571C156.996 211.204 157.18 211.021 157.364 210.837C157.548 210.654 157.916 210.47 158.284 210.47C158.652 210.47 159.021 210.47 159.205 210.654C159.573 210.837 159.941 210.837 160.125 211.021L161.046 210.103ZM145.582 209.369H144.293V214.875C144.293 215.425 144.477 215.976 144.661 216.526C145.029 217.077 145.398 217.444 145.95 217.627C146.502 217.811 147.054 217.994 147.607 217.994C148.159 217.994 148.711 217.811 149.264 217.627C149.816 217.444 150.184 217.077 150.552 216.526C150.92 215.976 150.92 215.425 150.92 214.875V209.369H149.632V214.875C149.632 215.242 149.632 215.609 149.448 215.792C149.264 216.159 149.08 216.343 148.711 216.526C148.343 216.71 148.159 216.71 147.607 216.71C147.239 216.71 146.87 216.71 146.686 216.526C146.318 216.343 146.134 216.159 145.95 215.792C145.766 215.609 145.766 215.242 145.766 214.875V209.369H145.582ZM133.616 217.994H139.507V216.71H135.088V214.324H138.954V213.039H135.088V210.837H139.323V209.552H133.616V217.994ZM128.461 218.361V209.552H127.172V215.242L120.913 209.185V217.994H122.386V212.305L128.461 218.361Z" fill="#05060D"/>
<path d="M171.723 175.785H120.177V176.335H171.723V175.785Z" fill="#AF935F"/>
<path d="M164.728 73.0131H156.443L160.493 65.8558L164.728 73.0131Z" fill="#AF935F"/>
<path d="M153.866 73.0131H145.582L149.816 65.8558L153.866 73.0131Z" fill="#AF935F"/>
<path d="M143.188 73.0131H134.72L138.954 65.8558L143.188 73.0131Z" fill="#AF935F"/>
<path d="M159.389 65.1217L155.155 72.279L153.13 68.7921L150.921 65.1217H159.389Z" fill="#AF935F"/>
<path d="M148.527 65.1217L146.502 68.7921L144.293 72.279L140.243 65.1217H148.527Z" fill="#AF935F"/>
<path d="M164.544 74.4813L151.289 90.9982L155.707 74.4813H164.544Z" fill="#AF935F"/>
<path d="M154.234 74.4813L149.816 91.3652L145.214 74.4813H154.234Z" fill="#AF935F"/>
<path d="M148.159 90.9982L135.088 74.4813H143.74L148.159 90.9982Z" fill="#AF935F"/>
<path d="M150.736 108.983C143.925 115.223 140.611 127.519 145.582 138.53C150 148.257 160.493 154.129 169.698 153.395C169.698 153.395 169.698 153.212 169.514 153.212C169.33 153.212 169.146 153.212 168.962 153.028C161.23 151.743 154.786 148.073 150 142.017C142.636 132.657 142.636 118.893 150 109.717C150.368 109.534 150.552 109.167 150.736 108.983Z" fill="#858585"/>
<path d="M151.841 151.56C162.519 159.268 175.957 157.983 184.978 151.743C174.117 157.066 163.255 157.616 153.13 150.459C143.005 143.301 139.691 133.024 141.532 120.912C138.586 131.923 141.164 143.852 151.841 151.56Z" fill="#858585"/>
<path d="M121.833 148.991C118.152 148.624 114.654 147.523 111.524 145.687C105.633 142.2 101.767 137.062 99.9263 130.639C97.7172 122.747 99.1899 115.223 103.792 108.433C103.976 108.066 104.16 107.882 104.345 107.515C97.1649 115.957 95.8762 126.785 101.399 137.062C106.185 145.687 115.942 150.642 123.49 150.092C123.49 149.358 122.57 149.174 121.833 148.991Z" fill="#858585"/>
<path d="M189.764 136.878C194.182 129.721 195.103 122.013 192.157 114.305C188.844 105.496 182.584 99.8072 173.564 97.2379C172.091 96.8708 170.618 96.6873 169.146 96.5038C169.33 96.6873 169.514 96.6873 169.698 96.6873C169.882 96.6873 170.066 96.6873 170.25 96.8708C179.639 98.706 185.898 104.212 189.764 112.654C192.157 117.792 192.525 123.114 191.605 128.803C190.685 134.126 188.291 138.897 184.057 142.567C182.768 143.669 181.112 144.77 179.639 145.871C183.873 143.852 187.371 140.916 189.764 136.878Z" fill="#858585"/>
<path d="M203.203 121.279C201.73 111.919 197.128 104.395 189.764 98.5224C184.241 94.1179 177.798 91.7322 170.802 91.3651C166.568 91.1816 162.334 91.5487 158.468 93.0168C158.1 93.2003 157.732 93.3839 157.364 93.5674C158.1 94.3015 158.836 94.1179 159.573 93.9344C161.966 93.5674 164.359 93.0168 166.752 93.0168C177.798 93.0168 186.45 97.7884 192.71 106.781C196.576 112.47 198.048 118.71 197.128 125.5C196.944 126.968 196.76 128.253 196.392 129.537C196.576 129.17 196.76 128.62 196.944 128.253C198.785 122.013 198.785 115.957 196.207 109.901C194.919 106.597 192.894 103.661 190.501 100.908C190.316 100.725 190.132 100.358 189.948 99.9906C190.316 99.9906 190.501 100.174 190.501 100.358C193.446 103.294 196.023 106.597 198.048 110.268C201.362 116.691 203.019 123.665 201.73 130.822C199.521 143.669 192.341 152.477 180.191 157.066C172.091 160.002 163.807 159.818 156.075 156.148C149.632 153.212 144.477 148.44 140.795 142.384C135.088 133.208 134.168 123.665 137.665 113.571C139.506 108.066 142.82 103.477 147.054 99.44C147.422 99.073 147.791 98.706 148.159 98.3389L147.975 98.1554C147.607 98.3389 147.238 98.5224 146.87 98.706C141.531 102.56 137.85 107.698 135.456 113.755C132.879 119.26 132.143 124.766 132.879 130.272C133.8 138.346 136.745 145.687 142.636 151.56C152.761 161.47 164.727 164.59 178.166 160.736C188.844 157.616 196.392 150.826 200.81 140.732C203.571 134.492 204.308 127.886 203.203 121.279Z" fill="#858585"/>
<path d="M109.131 101.275C102.32 105.313 97.7175 111.185 96.2447 119.077C94.0356 130.272 97.7175 139.448 106.37 146.788C112.077 151.56 122.57 154.496 126.436 152.661C125.7 152.294 125.148 151.927 124.595 151.927C118.152 151.927 112.261 149.908 107.29 145.871C101.399 141.099 97.9016 135.043 96.9811 127.519C95.8765 118.343 99.1902 110.635 105.634 104.212C106.738 103.11 108.027 102.193 109.131 101.275Z" fill="#858585"/>
<path d="M139.323 152.661C134.721 155.23 129.382 156.699 123.675 156.699C106.002 156.699 91.8266 142.384 91.8266 124.949C91.8266 107.331 106.186 93.2004 123.675 93.2004C141.348 93.2004 155.523 107.515 155.523 124.949C155.523 130.272 154.235 135.227 152.025 139.448C153.498 140.916 155.155 142.567 156.628 144.036C159.941 138.346 161.782 131.74 161.782 124.766C161.782 114.672 157.732 104.946 150.553 97.7884C143.373 90.6311 133.8 86.5936 123.491 86.5936C113.366 86.5936 103.609 90.6311 96.429 97.7884C89.2493 104.946 85.1992 114.489 85.1992 124.766C85.1992 134.86 89.2493 144.586 96.429 151.743C103.609 158.901 113.182 162.938 123.491 162.938C130.855 162.938 137.85 160.919 143.925 157.066C142.637 155.964 141.348 154.863 140.059 153.762C140.059 153.395 139.691 153.028 139.323 152.661Z" fill="#858585"/>
</svg>
