<svg width="26" height="26" viewBox="0 0 26 26" fill="none" xmlns="http://www.w3.org/2000/svg">
<path d="M8.04336 5.79698V2.6001M17.966 5.79698V2.6001M2.59961 9.24173V5.19854C2.59961 4.64626 3.04732 4.19854 3.59961 4.19854H8.04336H17.966H22.3996C22.9519 4.19854 23.3996 4.64625 23.3996 5.19854V9.24173M2.59961 9.24173V22.4001C2.59961 22.9524 3.04732 23.4001 3.59961 23.4001H22.3996C22.9519 23.4001 23.3996 22.9524 23.3996 22.4001V9.24173M2.59961 9.24173H23.3996M7.14961 13.2752H8.84919M12.3496 13.2752H14.0492M17.0621 13.2752H18.7617M7.14961 18.8501H8.84919M12.3496 18.8501H14.0492M17.0621 18.8501H18.7617" stroke="#425C98" stroke-linecap="round"/>
</svg>
