<svg width="26" height="26" viewBox="0 0 26 26" fill="none" xmlns="http://www.w3.org/2000/svg">
<g opacity="0.6">
<path d="M13.0008 2.59998C10.7659 2.59996 8.62194 3.46263 7.03827 4.99919C5.45461 6.53575 4.56019 8.62104 4.55078 10.7986C4.55078 13.728 5.97394 16.8133 8.66904 19.7166C9.88803 21.04 11.2594 22.2222 12.7562 23.2396L13.0008 23.4L13.2454 23.2396C14.7421 22.2222 16.1135 21.04 17.3325 19.7166C20.0276 16.8133 21.4508 13.728 21.4508 10.7986C21.4414 8.62104 20.547 6.53575 18.9633 4.99919C17.3796 3.46263 15.2357 2.59996 13.0008 2.59998ZM13.0008 15.6C12.0332 15.6 11.0874 15.3204 10.2829 14.7966C9.47837 14.2729 8.85134 13.5284 8.48107 12.6574C8.11079 11.7864 8.01391 10.828 8.20268 9.90338C8.39144 8.97873 8.85737 8.1294 9.54154 7.46277C10.2257 6.79614 11.0974 6.34216 12.0464 6.15823C12.9954 5.97431 13.979 6.06871 14.8729 6.42948C15.7668 6.79026 16.5309 7.40122 17.0684 8.18509C17.606 8.96896 17.8929 9.89055 17.8929 10.8333C17.8929 12.0975 17.3775 13.3099 16.46 14.2039C15.5426 15.0978 14.2982 15.6 13.0008 15.6Z" stroke="white"/>
</g>
</svg>
