<svg width="23" height="22" viewBox="0 0 23 22" fill="none" xmlns="http://www.w3.org/2000/svg">
<path d="M7.16847 19.0817C8.70258 19.8932 10.4361 20.3186 12.1991 20.3163C14.4521 20.315 16.6413 19.6175 18.4255 18.3326C20.2097 17.0476 21.4885 15.2474 22.0626 13.2125C22.6368 11.1777 22.4739 9.0226 21.5995 7.08323C20.7251 5.14386 19.1883 3.52921 17.2286 2.49101C15.2689 1.45281 12.9965 1.04941 10.7657 1.3437C8.53487 1.63798 6.47096 2.61342 4.89577 4.11793C3.32057 5.62244 2.32263 7.57147 2.05747 9.66117C1.79232 11.7509 2.27486 13.8638 3.4299 15.6705L1.59961 20.75L7.16847 19.0817Z" stroke="white"/>
</svg>
