<svg width="26" height="26" viewBox="0 0 26 26" fill="none" xmlns="http://www.w3.org/2000/svg">
<g opacity="0.5">
<path d="M9.28374 19.2167C10.4638 19.8409 11.7973 20.1682 13.1535 20.1664C14.8865 20.1654 16.5705 19.6289 17.943 18.6404C19.3154 17.652 20.2991 16.2672 20.7408 14.702C21.1824 13.1367 21.0572 11.4789 20.3846 9.9871C19.7119 8.49527 18.5298 7.25324 17.0223 6.45462C15.5149 5.65601 13.7669 5.3457 12.0508 5.57207C10.3348 5.79845 8.74719 6.54878 7.53551 7.7061C6.32382 8.86341 5.55617 10.3627 5.3522 11.9701C5.14824 13.5776 5.51942 15.2029 6.40792 16.5927L5 20.5L9.28374 19.2167Z" stroke="white"/>
<path d="M14.1551 14.557C14.232 14.557 14.3014 14.5249 14.3506 14.4733L14.8913 13.8688C15.0007 13.7554 15.1543 13.6849 15.3243 13.6849C15.4009 13.6849 15.4742 13.6992 15.5416 13.7253L17.0403 14.4733C17.1541 14.5365 17.2311 14.6578 17.2311 14.7972C17.2311 14.8616 17.2146 14.9221 17.1857 14.9749C16.6846 15.9928 15.6996 16.5997 13.953 15.9542C11.8994 15.1721 11.0676 14.3898 9.83265 12.6926C8.89314 11.4458 9.47012 9.49712 10.8851 9.49712C11.0402 9.49712 11.1729 9.59245 11.228 9.72769L11.8633 11.0892C11.894 11.1614 11.911 11.241 11.911 11.3245C11.911 11.4468 11.8745 11.5606 11.8118 11.6556L11.4559 12.115C11.4034 12.1643 11.3706 12.2344 11.3706 12.3121C11.3706 12.3619 11.3841 12.4086 11.4076 12.4487C12.3141 13.7324 12.9139 14.1193 14.0385 14.5306C14.0738 14.5475 14.1133 14.557 14.1551 14.557Z" stroke="white"/>
</g>
</svg>
