<svg width="27" height="27" viewBox="0 0 27 27" fill="none" xmlns="http://www.w3.org/2000/svg">
<path d="M22.7467 4.64946C23.759 4.97384 24.5571 5.92378 24.8296 7.12859C25.3358 9.32969 25.3163 13.9172 25.3163 13.9172C25.3163 13.9172 25.3163 18.4816 24.8296 20.6827C24.5571 21.8875 23.759 22.8375 22.7467 23.1618C20.8973 23.7411 13.5 23.7411 13.5 23.7411C13.5 23.7411 6.12203 23.7411 4.25321 23.1387C3.24094 22.8143 2.4428 21.8643 2.17026 20.6595C1.68359 18.4816 1.68359 13.8941 1.68359 13.8941C1.68359 13.8941 1.68359 9.32969 2.17026 7.12859C2.4428 5.92378 3.26041 4.95067 4.25321 4.62629C6.10256 4.04706 13.5 4.04706 13.5 4.04706C13.5 4.04706 20.8973 4.04706 22.7467 4.64946Z" stroke="white"/>
<path d="M17.1668 14.0713L10.6474 10.3491V17.7935L17.1668 14.0713Z" stroke="white"/>
</svg>
