<svg width="27" height="27" viewBox="0 0 27 27" fill="none" xmlns="http://www.w3.org/2000/svg">
<path d="M10.7991 12.26H8.77344V15.424H10.7991V25.3166H7.5918C4.32879 25.3166 1.68359 22.6714 1.68359 19.4084V7.59198C1.68359 4.32897 4.32879 1.68378 7.5918 1.68378H19.4082C22.6712 1.68378 25.3164 4.32897 25.3164 7.59198V19.4084C25.3164 22.6714 22.6712 25.3166 19.4082 25.3166H14.5128V15.424H17.889V12.26H14.5128V9.62323C14.5128 8.76858 15.2417 8.56854 16.0321 8.56854C16.6086 8.59659 17.1777 8.71512 17.7201 8.92011L18.2266 5.58026C18.2266 5.58026 17.0618 5.2287 14.5128 5.2287C12.95 5.2287 12.135 5.8594 11.4743 6.81073C10.8437 7.71407 10.7991 9.21138 10.7991 10.1506V12.26Z" stroke="white"/>
</svg>
