<svg width="44" height="44" viewBox="0 0 44 44" fill="none" xmlns="http://www.w3.org/2000/svg">
<rect width="44" height="44" rx="8" fill="#1A253E"/>
<path fill-rule="evenodd" clip-rule="evenodd" d="M13.4542 0H8C4.60722 0 1.70773 2.11202 0.544539 5.09303L6.28375 15.1114L18.2003 8.2847L13.4542 0ZM0 12.1894V18.7111L2.81293 17.0997L0 12.1894ZM0 23.321V36C0 40.4183 3.58172 44 8 44H8.75016L15.8826 39.914L4.80126 20.5705L0 23.321ZM16.7971 44H18.2233L17.8709 43.3848L16.7971 44ZM22.8332 44H36C36.852 44 37.6729 43.8668 38.443 43.6201L33.2583 34.5699L21.3418 41.3965L22.8332 44ZM41.8274 41.481C43.1746 40.0493 44 38.121 44 36V28.4163L36.7291 32.5815L41.8274 41.481ZM44 23.8064V18.5519L32.4744 25.1546L34.7408 29.1107L44 23.8064ZM44 13.942V8C44 4.79502 42.1153 2.03022 39.3938 0.75344L23.6595 9.76718L30.4861 21.6837L44 13.942ZM32.662 0L21.6711 6.29637L18.0641 0H32.662ZM27.0153 23.6721L20.1886 11.7555L8.27208 18.5822L15.0987 30.4987L27.0153 23.6721ZM17.0871 33.9695L29.0036 27.1429L31.27 31.099L19.3534 37.9257L17.0871 33.9695Z" fill="#425C98"/>
<path opacity="0.2" fill-rule="evenodd" clip-rule="evenodd" d="M44.0004 23.384V36C44.0004 40.212 40.7453 43.6638 36.6134 43.9769L22.5 34.0002L22.775 33.8152C24.4577 32.6411 25.9995 31.2771 27.37 29.7502C30.4 26.4002 32 22.8402 32 19.4602C31.9903 17.16 31.1468 14.9491 29.6383 13.2314L44.0004 23.384Z" fill="#05060D"/>
<path fill-rule="evenodd" clip-rule="evenodd" d="M22.5 10C19.9874 9.99998 17.577 10.9954 15.7966 12.7683C14.0161 14.5413 13.0106 16.9474 13 19.46C13 22.84 14.6 26.4 17.63 29.75C19.0005 31.277 20.5423 32.641 22.225 33.815L22.5 34L22.775 33.815C24.4577 32.641 25.9995 31.277 27.37 29.75C30.4 26.4 32 22.84 32 19.46C31.9894 16.9474 30.9839 14.5413 29.2034 12.7683C27.423 10.9954 25.0126 9.99998 22.5 10ZM19.4444 24.0731C20.3488 24.6774 21.4122 25 22.5 25C23.9587 25 25.3576 24.4205 26.3891 23.3891C27.4205 22.3576 28 20.9587 28 19.5C28 18.4122 27.6774 17.3488 27.0731 16.4444C26.4687 15.5399 25.6098 14.8349 24.6048 14.4187C23.5998 14.0024 22.4939 13.8935 21.427 14.1057C20.3601 14.3179 19.3801 14.8417 18.6109 15.6109C17.8417 16.3801 17.3179 17.3601 17.1057 18.427C16.8935 19.4939 17.0024 20.5998 17.4187 21.6048C17.8349 22.6098 18.5399 23.4687 19.4444 24.0731Z" fill="white"/>
<circle cx="22.5" cy="19.5" r="3.5" fill="#AF935F"/>
</svg>
