<svg width="27" height="27" viewBox="0 0 27 27" fill="none" xmlns="http://www.w3.org/2000/svg">
<path d="M8.43583 25.3166H18.5642C20.355 25.3166 22.0724 24.6152 23.3387 23.3668C24.605 22.1183 25.3164 20.425 25.3164 18.6595V8.34091C25.3164 6.57533 24.605 4.88206 23.3387 3.63361C22.0724 2.38515 20.355 1.68378 18.5642 1.68378H8.43583C6.64502 1.68378 4.92756 2.38515 3.66127 3.63361C2.39498 4.88206 1.68359 6.57533 1.68359 8.34091V18.6595C1.68359 20.425 2.39498 22.1183 3.66127 23.3668C4.92756 24.6152 6.64502 25.3166 8.43583 25.3166Z" stroke="white"/>
<path d="M21.9873 6.32149C21.9873 7.15954 21.3079 7.83893 20.4698 7.83893C19.6318 7.83893 18.9524 7.15954 18.9524 6.32149C18.9524 5.48343 19.6318 4.80405 20.4698 4.80405C21.3079 4.80405 21.9873 5.48343 21.9873 6.32149Z" stroke="white"/>
</svg>
