<svg width="22" height="22" viewBox="0 0 22 22" fill="none" xmlns="http://www.w3.org/2000/svg">
<g opacity="0.5">
<path d="M18.2748 4.84683C18.2748 5.56517 17.6925 6.14749 16.9741 6.14749C16.2558 6.14749 15.6735 5.56517 15.6735 4.84683C15.6735 4.12849 16.2558 3.54617 16.9741 3.54617C17.6925 3.54617 18.2748 4.12849 18.2748 4.84683Z" stroke="white"/>
<path d="M15.9107 11C15.9107 13.7121 13.7121 15.9107 11 15.9107C8.28789 15.9107 6.08929 13.7121 6.08929 11C6.08929 8.28789 8.28789 6.08929 11 6.08929C13.7121 6.08929 15.9107 8.28789 15.9107 11Z" stroke="white"/>
<path d="M0.6875 6.58036C0.6875 3.32582 3.32582 0.6875 6.58036 0.6875H15.4196C18.6742 0.6875 21.3125 3.32582 21.3125 6.58036V15.4196C21.3125 18.6742 18.6742 21.3125 15.4196 21.3125H6.58036C3.32582 21.3125 0.6875 18.6742 0.6875 15.4196V6.58036Z" stroke="white"/>
</g>
</svg>
