<svg width="20" height="20" viewBox="0 0 20 20" fill="none" xmlns="http://www.w3.org/2000/svg">
<path d="M13.2565 11.9847C13.0103 12.1005 12.5586 12.7467 12.4796 12.857C12.3552 13.0193 12.1954 13.1508 12.0124 13.2416C11.8294 13.3323 11.6282 13.3798 11.4241 13.3803C10.0213 13.2931 8.30824 11.6531 8.30824 11.6531C8.30824 11.6531 6.70608 9.97835 6.61899 8.57395C6.60273 8.02531 6.95574 7.67272 7.14154 7.51735C7.25069 7.43844 7.89749 6.98713 8.01245 6.73968C8.10603 6.57531 8.15888 6.39078 8.16656 6.20163C8.17424 6.01247 8.13651 5.82423 8.05656 5.65277C7.83709 5.05262 6.95573 3.79379 6.89883 3.74717C6.87445 3.71465 5.63482 2.11048 5.08735 2.03458C4.79387 1.97529 4.30467 1.9439 3.59053 2.36094C3.24531 2.52327 2.93664 2.75445 2.6833 3.04038C2.42996 3.32631 2.23727 3.66102 2.11695 4.02411C2.0856 4.07131 1.87309 4.66996 2.1123 5.69753C2.34561 6.34535 2.61544 6.97932 2.9205 7.59638C4.43473 10.8182 6.84426 13.1562 6.84426 13.1562C6.84426 13.1562 9.1818 15.5642 12.4007 17.0787C13.0173 17.3844 13.6508 17.6543 14.2981 17.8873C15.3246 18.127 15.9227 17.9147 15.9703 17.883C16.3324 17.7634 16.6665 17.571 16.9522 17.3176C17.2379 17.0642 17.4692 16.7551 17.632 16.4091C18.0489 15.6946 18.0337 15.0644 17.9583 14.9118C17.9583 14.3667 16.3093 13.1454 16.2479 13.0999L16.2466 13.099C16.2002 13.042 14.9426 12.1602 14.3434 11.9408C14.1717 11.8611 13.9837 11.8235 13.7947 11.8312C13.6057 11.8388 13.4212 11.8914 13.2565 11.9847Z" stroke="white"/>
</svg>
