<svg width="27" height="27" viewBox="0 0 27 27" fill="none" xmlns="http://www.w3.org/2000/svg">
<path fill-rule="evenodd" clip-rule="evenodd" d="M18.2059 8.01661V8.6702H18.2046V17.4493C18.2046 19.5419 17.3802 21.5322 15.9008 23.0129C14.4215 24.4922 12.4298 25.3166 10.3386 25.3166C8.24604 25.3166 6.25568 24.4922 4.77636 23.0129C3.29704 21.5336 2.47266 19.5419 2.47266 17.4493C2.47266 15.3567 3.29704 13.3664 4.77636 11.8871C6.25568 10.4077 8.24604 9.58335 10.3386 9.58335H11.7978V13.7187H10.3373C9.34343 13.7187 8.40069 14.1087 7.69869 14.8121C6.99669 15.5141 6.60668 16.4568 6.60668 17.4506C6.60668 18.4445 6.99669 19.3872 7.69869 20.0892C8.40069 20.7912 9.34343 21.1826 10.3373 21.1826C11.3311 21.1826 12.2738 20.7912 12.9758 20.0892C13.6778 19.3872 14.0678 18.4445 14.0678 17.4587V1.68378H18.1857L18.3915 2.06571C19.033 3.25455 19.8977 4.38017 20.9695 5.21263C21.7993 5.85546 22.738 6.30867 23.7749 6.49157L24.5078 6.62067L23.7211 10.6081L23.0164 10.4817C22.1772 10.3311 21.3542 10.0769 20.5822 9.7138C19.7 9.29421 18.8783 8.73072 18.2059 8.01661Z" stroke="white"/>
</svg>
