<svg width="72" height="72" viewBox="0 0 72 72" fill="none" xmlns="http://www.w3.org/2000/svg">
<path d="M33 42.6429C28.2632 42.6429 27.4737 39.8047 25.8947 39.8047C20.6041 39.8047 18 47.2585 18 52.5952V56H48V52.5952C48 47.2585 45.3959 39.8046 40.1053 39.8046C38.5263 39.8046 37.7368 42.6429 33 42.6429Z" fill="#AF935F" fill-opacity="0.2"/>
<path d="M40.4902 30.4643C40.4902 34.5867 37.1323 37.9286 32.9902 37.9286C28.848 37.9286 25.4902 34.5867 25.4902 30.4643C25.4902 26.3419 28.848 23 32.9902 23C37.1323 23 40.4902 26.3419 40.4902 30.4643Z" fill="#AF935F" fill-opacity="0.2"/>
<path d="M66.8581 1H45.1437C44.0458 1.00174 42.9933 1.4318 42.2169 2.19592C41.4405 2.96004 41.0036 3.99591 41.0018 5.07654L41.0007 12.39L41 17.0346C41.0018 18.1152 41.4387 19.1511 42.2151 19.9152C42.9915 20.6794 44.0439 21.1094 45.1419 21.1111H45.4958V27.3554C45.4959 27.4686 45.5262 27.5798 45.5838 27.6778C45.6413 27.7758 45.7241 27.8571 45.8237 27.9137C45.9233 27.9703 46.0363 28 46.1513 28C46.2663 28 46.3793 27.9702 46.4789 27.9136L55.4585 22.812L58.4471 21.1141H66.8581C67.9561 21.1124 69.0085 20.6823 69.7849 19.9182C70.5613 19.1541 70.9982 18.1182 71 17.0376V5.07834C70.9987 3.9974 70.562 2.96107 69.7856 2.19655C69.0091 1.43204 67.9564 1.00175 66.8581 1Z" fill="#AF935F" fill-opacity="0.2"/>
<path d="M35.6544 11.2667C35.6557 11.2301 35.6563 11.1933 35.6563 11.1563C35.6563 9.41313 34.2432 8 32.5 8C30.7568 8 29.3437 9.41313 29.3437 11.1563C29.3437 11.1933 29.3443 11.2301 29.3456 11.2667C29.4038 12.9588 30.7938 14.3126 32.5 14.3126C34.2062 14.3126 35.5962 12.9588 35.6544 11.2667ZM35.6544 11.2667C37.4954 11.4706 39.2833 11.8508 41.0007 12.39M60.6634 42.6512C60.7231 42.6546 60.7832 42.6563 60.8437 42.6563C62.5869 42.6563 64 41.2432 64 39.5C64 37.7568 62.5869 36.3437 60.8437 36.3437C59.1005 36.3437 57.6874 37.7568 57.6874 39.5C57.6874 41.1827 59.0041 42.5578 60.6634 42.6512ZM60.6634 42.6512C59.4658 53.2611 52.4108 62.0967 42.8091 65.8474C42.6192 65.9216 42.4283 65.9938 42.2364 66.064M4.32269 36.348C4.26759 36.3451 4.21212 36.3437 4.15631 36.3437C2.41313 36.3437 1 37.7568 1 39.5C1 41.2432 2.41313 42.6563 4.15631 42.6563C5.8995 42.6563 7.31263 41.2432 7.31263 39.5C7.31263 37.8126 5.98853 36.4345 4.32269 36.348ZM4.32269 36.348C5.5014 25.4722 12.8324 16.4421 22.7636 12.8097M29.3524 67.6078C29.3466 67.6856 29.3437 67.7643 29.3437 67.8437C29.3437 69.5869 30.7568 71 32.5 71C34.2432 71 35.6563 69.5869 35.6563 67.8437C35.6563 66.1005 34.2432 64.6874 32.5 64.6874C30.8362 64.6874 29.473 65.9748 29.3524 67.6078ZM29.3524 67.6078C18.4635 66.4047 9.43345 59.0334 5.83362 49.0653M59.1501 29.7636C58.2425 27.2637 56.9932 24.9276 55.4585 22.812M46.9571 14.7628L65.0229 14.7631M46.9771 7.58602H65.0229M41.0007 12.39L41.0018 5.07654C41.0036 3.99591 41.4405 2.96004 42.2169 2.19592C42.9933 1.4318 44.0458 1.00174 45.1437 1H66.8581C67.9564 1.00175 69.0091 1.43204 69.7856 2.19655C70.562 2.96107 70.9987 3.9974 71 5.07834V17.0376C70.9982 18.1182 70.5613 19.1541 69.7849 19.9182C69.0085 20.6823 67.9561 21.1124 66.8581 21.1141H58.4471L55.4585 22.812M41.0007 12.39L41 17.0346C41.0018 18.1152 41.4387 19.1511 42.2151 19.9152C42.9915 20.6794 44.0439 21.1094 45.1419 21.1111H45.4958V27.3554C45.4959 27.4686 45.5262 27.5798 45.5838 27.6778C45.6413 27.7758 45.7241 27.8571 45.8237 27.9137C45.9233 27.9703 46.0363 28 46.1513 28C46.2663 28 46.3793 27.9702 46.4789 27.9136L55.4585 22.812M40.4902 30.4643C40.4902 34.5867 37.1323 37.9286 32.9902 37.9286C28.848 37.9286 25.4902 34.5867 25.4902 30.4643C25.4902 26.3419 28.848 23 32.9902 23C37.1323 23 40.4902 26.3419 40.4902 30.4643ZM33 42.6429C28.2632 42.6429 27.4737 39.8047 25.8947 39.8047C20.6041 39.8047 18 47.2585 18 52.5952V56H48V52.5952C48 47.2585 45.3959 39.8046 40.1053 39.8046C38.5263 39.8046 37.7368 42.6429 33 42.6429Z" stroke="#05060D"/>
</svg>
