<svg width="72" height="72" viewBox="0 0 72 72" fill="none" xmlns="http://www.w3.org/2000/svg">
<path d="M38.9902 16L47.4902 6.05435H42.1777H35.8027H30.4902L38.9902 16Z" fill="#AF935F" fill-opacity="0.2"/>
<path d="M47.4902 6.05435L44.3027 1H38.9902H33.6777L30.4902 6.05435H35.8027H42.1777H47.4902Z" fill="#AF935F" fill-opacity="0.2"/>
<path d="M41.51 36.2488C40.5402 36.9559 39.6982 37.7975 39.0021 38.7552C38.3026 37.7991 37.4594 36.9555 36.49 36.2425C35.3821 35.4331 34.1606 34.8341 32.8687 34.4598C31.9021 34.1798 30.8961 34.0255 29.8688 34.0029C29.7809 34.001 29.6928 34 29.6046 34C23.2056 34 18 39.1698 18 45.5248C18 47.9303 18.741 50.2246 20.1344 52.1811L20.6143 52.8185C20.7314 52.961 20.8488 53.0963 20.9676 53.2256C20.9722 53.231 21.0186 53.2833 21.0236 53.2883L24.7222 56.9603L28.279 60.4914L38.7698 70.9066C38.8324 70.9689 38.9143 71 38.9967 71C39.0786 71 39.1609 70.9689 39.2236 70.9066L49.2165 60.9857L52.381 57.8439L57.0282 53.2302C57.2706 52.9658 57.5033 52.6824 57.7415 52.3629C59.219 50.3685 60 48.0039 60 45.5248C60 39.1698 54.7915 34 48.3891 34C47.4487 34 46.5257 34.1099 45.6339 34.3251L45.6143 34.3298C44.2674 34.6573 42.9919 35.2253 41.8349 36.0179C41.7256 36.0929 41.6173 36.1698 41.51 36.2488Z" fill="#AF935F" fill-opacity="0.2"/>
<path d="M47.4902 6.05435L38.9902 16L30.4902 6.05435M47.4902 6.05435L44.3027 1H38.9902H33.6777L30.4902 6.05435M47.4902 6.05435H42.1777H35.8027H30.4902M38.9474 22.1405C42.1577 20.1495 45.9446 19 50 19C61.598 19 71 28.402 71 40C71 51.598 61.598 61 50 61C49.7377 61 49.4765 60.9952 49.2165 60.9857M38.9474 22.1405C34.9173 18.3338 29.4812 16 23.5 16C11.0736 16 1 26.0736 1 38.5C1 50.9264 11.0736 61 23.5 61C25.1399 61 26.7388 60.8246 28.279 60.4914M38.9474 22.1405C39.6906 22.8426 40.3861 23.5948 41.0283 24.3917M41.0283 24.3917C43.6695 22.8703 46.7331 22 50 22C59.9411 22 68 30.0589 68 40C68 49.1339 61.1967 56.6789 52.381 57.8439M41.0283 24.3917C43.3088 27.2214 44.9181 30.6147 45.6143 34.3298M35.7158 24.6063C32.4572 21.739 28.1817 20 23.5 20C13.2827 20 5 28.2827 5 38.5C5 48.7173 13.2827 57 23.5 57C23.9107 57 24.3182 56.9866 24.7222 56.9603M35.7158 24.6063C36.4676 25.2679 37.1653 25.9896 37.8014 26.7638M35.7158 24.6063C33.0004 27.1272 30.9531 30.3577 29.8688 34.0029M37.8014 26.7638C39.9294 29.3538 41.3675 32.5322 41.8349 36.0179M37.8014 26.7638C35.5516 28.8382 33.832 31.479 32.8687 34.4598M41.8349 36.0179C41.7256 36.0929 41.6173 36.1698 41.51 36.2488C40.5402 36.9559 39.6982 37.7975 39.0021 38.7552C38.3026 37.7991 37.4594 36.9555 36.49 36.2425C35.3821 35.4331 34.1606 34.8341 32.8687 34.4598M41.8349 36.0179C42.9919 35.2253 44.2674 34.6573 45.6143 34.3298M45.6339 34.3251C46.5257 34.1099 47.4487 34 48.3891 34C54.7915 34 60 39.1698 60 45.5248C60 48.0039 59.219 50.3685 57.7415 52.3629C57.5033 52.6824 57.2706 52.9658 57.0282 53.2302L52.381 57.8439M45.6339 34.3251C45.6273 34.3267 45.6208 34.3282 45.6143 34.3298M45.6339 34.3251L45.6143 34.3298M32.8687 34.4598C31.9021 34.1798 30.8961 34.0255 29.8688 34.0029M29.8688 34.0029C29.7809 34.001 29.6928 34 29.6046 34C23.2056 34 18 39.1698 18 45.5248C18 47.9303 18.741 50.2246 20.1344 52.1811L20.6143 52.8185C20.7314 52.961 20.8488 53.0963 20.9676 53.2256C20.9722 53.231 21.0186 53.2833 21.0236 53.2883L24.7222 56.9603M24.7222 56.9603L28.279 60.4914M28.279 60.4914L38.7698 70.9066C38.8324 70.9689 38.9143 71 38.9967 71C39.0786 71 39.1609 70.9689 39.2236 70.9066L49.2165 60.9857M49.2165 60.9857L52.381 57.8439" stroke="#05060D" stroke-linecap="round"/>
</svg>
