<svg width="72" height="72" viewBox="0 0 72 72" fill="none" xmlns="http://www.w3.org/2000/svg">
<path d="M40.3594 42.8178C40.3594 45.2754 38.3519 47.2677 35.8754 47.2677C33.399 47.2677 31.3915 45.2754 31.3915 42.8178C31.3915 40.3603 33.399 38.368 35.8754 38.368V22.2993L18.3132 48.2565L24.9146 58.8866H46.8363L53.5623 48.2565L35.8754 22.2993V38.368C38.3519 38.368 40.3594 40.3603 40.3594 42.8178Z" fill="#AF935F" fill-opacity="0.2"/>
<path d="M46.8363 58.8866H24.9146V63.3364H46.8363V58.8866Z" fill="#AF935F" fill-opacity="0.2"/>
<path d="M49.8256 68.5279V65.8086C49.8256 64.4432 48.7103 63.3364 47.3345 63.3364H46.8363H24.9146H24.4164C23.0406 63.3364 21.9253 64.4432 21.9253 65.8086V68.5279C21.9253 69.8932 23.0406 71 24.4164 71H47.3345C48.7103 71 49.8256 69.8932 49.8256 68.5279Z" fill="#AF935F" fill-opacity="0.2"/>
<path d="M39.6121 1H32.3879V4.58457V4.69365V8.16915H39.6121V4.71464V4.58457V1Z" fill="#AF935F" fill-opacity="0.2"/>
<path d="M6.23132 4.58457V1.98885H1V7.1803H6.23132V4.58457ZM6.23132 4.58457H32.3879M9.04649 17.8636C8.36152 17.0854 7.35426 16.5939 6.23132 16.5939C4.16762 16.5939 2.49466 18.2541 2.49466 20.302C2.49466 22.35 4.16762 24.0102 6.23132 24.0102C8.29501 24.0102 9.96797 22.35 9.96797 20.302C9.96797 19.3685 9.62032 18.5155 9.04649 17.8636ZM9.04649 17.8636C17.8506 11.1903 25.2155 5.63591 32.3879 4.69365M32.3879 4.69365V8.16915H39.6121V4.71464M32.3879 4.69365V4.58457M32.3879 4.58457V1H39.6121V4.58457M39.6121 4.71464V4.58457M39.6121 4.71464C46.7558 5.6927 54.1242 11.2485 62.9431 17.8755M39.6121 4.58457H65.7687M62.9431 17.8755C62.3755 18.5258 62.032 19.3741 62.032 20.302C62.032 22.35 63.705 24.0102 65.7687 24.0102C67.8324 24.0102 69.5053 22.35 69.5053 20.302C69.5053 18.2541 67.8324 16.5939 65.7687 16.5939C64.64 16.5939 63.6283 17.0904 62.9431 17.8755ZM65.7687 4.58457V7.1803H71V1.98885H65.7687V4.58457ZM35.8754 38.368C33.399 38.368 31.3915 40.3603 31.3915 42.8178C31.3915 45.2754 33.399 47.2677 35.8754 47.2677C38.3519 47.2677 40.3594 45.2754 40.3594 42.8178C40.3594 40.3603 38.3519 38.368 35.8754 38.368ZM35.8754 38.368V22.2993M24.9146 58.8866H46.8363M24.9146 58.8866L18.3132 48.2565L35.8754 22.2993M24.9146 58.8866V63.3364M46.8363 58.8866L53.5623 48.2565L35.8754 22.2993M46.8363 58.8866V63.3364M24.9146 63.3364H24.4164C23.0406 63.3364 21.9253 64.4432 21.9253 65.8086V68.5279C21.9253 69.8932 23.0406 71 24.4164 71H47.3345C48.7103 71 49.8256 69.8932 49.8256 68.5279V65.8086C49.8256 64.4432 48.7103 63.3364 47.3345 63.3364H46.8363M24.9146 63.3364H46.8363" stroke="#05060D"/>
</svg>
